<svg id="Слой_1" data-name="Слой 1" xmlns="http://www.w3.org/2000/svg" xmlns:xlink="http://www.w3.org/1999/xlink" viewBox="0 0 1920 1228.81"><defs><style>.cls-1{opacity:.25}</style><linearGradient id="Безымянный_градиент_1342" x1="658.5" y1="589.28" x2="713.5" y2="589.28" gradientUnits="userSpaceOnUse"><stop offset=".24" stop-color="#f7931e" stop-opacity="0"/><stop offset="1" stop-color="#ff56ff"/></linearGradient><linearGradient id="Безымянный_градиент_1342-2" x1="437.5" y1="617.8" x2="482.5" y2="617.8" xlink:href="#Безымянный_градиент_1342"/><linearGradient id="Безымянный_градиент_1342-3" x1="-231.5" y1="242.07" x2="951.5" y2="242.07" xlink:href="#Безымянный_градиент_1342"/><linearGradient id="Безымянный_градиент_1342-4" x1="490.5" y1="243.56" x2="563.5" y2="243.56" xlink:href="#Безымянный_градиент_1342"/><linearGradient id="Безымянный_градиент_1342-5" x1="-231.5" y1="230.98" x2="729.5" y2="230.98" xlink:href="#Безымянный_градиент_1342"/><linearGradient id="Безымянный_градиент_1342-6" x1="-231.5" y1="383.28" x2="1073.5" y2="383.28" xlink:href="#Безымянный_градиент_1342"/><linearGradient id="Безымянный_градиент_1342-7" x1="-231.5" y1="262.5" x2="471.5" y2="262.5" xlink:href="#Безымянный_градиент_1342"/><linearGradient id="Безымянный_градиент_1342-8" x1="-231.5" y1="447.43" x2="928.5" y2="447.43" xlink:href="#Безымянный_градиент_1342"/><linearGradient id="Безымянный_градиент_1342-9" x1="-231.5" y1="418.73" x2="645.5" y2="418.73" xlink:href="#Безымянный_градиент_1342"/><linearGradient id="Безымянный_градиент_1342-10" x1="-231.5" y1="389.75" x2="361.5" y2="389.75" xlink:href="#Безымянный_градиент_1342"/><linearGradient id="Безымянный_градиент_1342-11" x1="-231.5" y1="576.11" x2="823.5" y2="576.11" xlink:href="#Безымянный_градиент_1342"/><linearGradient id="Безымянный_градиент_1342-12" x1="-231.5" y1="539.63" x2="513.5" y2="539.63" xlink:href="#Безымянный_градиент_1342"/><linearGradient id="Безымянный_градиент_1342-13" x1="373.5" y1="819.26" x2="468.5" y2="819.26" xlink:href="#Безымянный_градиент_1342"/><linearGradient id="Безымянный_градиент_1342-14" x1="2193.96" y1="1063.01" x2="1014.04" y2="381.79" xlink:href="#Безымянный_градиент_1342"/><linearGradient id="Безымянный_градиент_1342-15" x1="1448.96" y1="775.09" x2="1379.04" y2="734.72" xlink:href="#Безымянный_градиент_1342"/><linearGradient id="Безымянный_градиент_1342-16" x1="2193.96" y1="1010.01" x2="1236.04" y2="456.96" xlink:href="#Безымянный_градиент_1342"/><linearGradient id="Безымянный_градиент_1342-17" x1="2193.96" y1="957.01" x2="892.04" y2="205.35" xlink:href="#Безымянный_градиент_1342"/><linearGradient id="Безымянный_градиент_1342-18" x1="2193.96" y1="904.01" x2="1494.04" y2="499.91" xlink:href="#Безымянный_градиент_1342"/><linearGradient id="Безымянный_градиент_1342-19" x1="1430.96" y1="465.17" x2="1379.04" y2="435.2" xlink:href="#Безымянный_градиент_1342"/><linearGradient id="Безымянный_градиент_1342-20" x1="2193.96" y1="851.01" x2="1037.04" y2="183.07" xlink:href="#Безымянный_градиент_1342"/><linearGradient id="Безымянный_градиент_1342-21" x1="2193.96" y1="798.01" x2="1320.04" y2="293.46" xlink:href="#Безымянный_градиент_1342"/><linearGradient id="Безымянный_градиент_1342-22" x1="2193.96" y1="745.01" x2="1604.04" y2="404.42" xlink:href="#Безымянный_градиент_1342"/><linearGradient id="Безымянный_градиент_1342-23" x1="2193.96" y1="692.01" x2="1142.04" y2="84.69" xlink:href="#Безымянный_градиент_1342"/><linearGradient id="Безымянный_градиент_1342-24" x1="2193.96" y1="639.01" x2="1452.04" y2="210.67" xlink:href="#Безымянный_градиент_1342"/><linearGradient id="Безымянный_градиент_1374" x1="1817.75" y1="62.1" x2="1825.25" y2="75.09" gradientUnits="userSpaceOnUse"><stop offset="0" stop-color="#ff56ff"/><stop offset="1" stop-color="#f7931e" stop-opacity="0"/></linearGradient><linearGradient id="Безымянный_градиент_1374-2" x1="1857.75" y1="196.1" x2="1865.25" y2="209.09" xlink:href="#Безымянный_градиент_1374"/><linearGradient id="Безымянный_градиент_1374-3" x1="1621.75" y1="178.17" x2="1637.25" y2="205.02" xlink:href="#Безымянный_градиент_1374"/><linearGradient id="Безымянный_градиент_1374-4" x1="1775.75" y1="123.57" x2="1779.25" y2="129.63" xlink:href="#Безымянный_градиент_1374"/><linearGradient id="Безымянный_градиент_1374-5" x1="1608.75" y1="102.57" x2="1612.25" y2="108.63" xlink:href="#Безымянный_градиент_1374"/><linearGradient id="Безымянный_градиент_1374-6" x1="1692.75" y1="274.57" x2="1696.25" y2="280.63" xlink:href="#Безымянный_градиент_1374"/><linearGradient id="Безымянный_градиент_1374-7" x1="1821.75" y1="245.57" x2="1825.25" y2="251.63" xlink:href="#Безымянный_градиент_1374"/><linearGradient id="Безымянный_градиент_1374-8" x1="3409.85" y1="1222.98" x2="3424.56" y2="1225.95" gradientTransform="rotate(38.6 2484.177 -3792.129)" xlink:href="#Безымянный_градиент_1374"/><linearGradient id="Безымянный_градиент_1374-9" x1="3600.45" y1="1227.14" x2="3615.16" y2="1230.11" gradientTransform="rotate(38.6 2484.177 -3792.129)" xlink:href="#Безымянный_градиент_1374"/><linearGradient id="Безымянный_градиент_1374-10" x1="3584.97" y1="1105.97" x2="3615.37" y2="1112.1" gradientTransform="rotate(38.6 2484.177 -3792.129)" xlink:href="#Безымянный_градиент_1374"/><linearGradient id="Безымянный_градиент_1374-11" x1="3520.38" y1="1151.93" x2="3527.24" y2="1153.32" gradientTransform="rotate(38.6 2484.177 -3792.129)" xlink:href="#Безымянный_градиент_1374"/><linearGradient id="Безымянный_градиент_1374-12" x1="3353.38" y1="1130.93" x2="3360.24" y2="1132.32" gradientTransform="rotate(38.6 2484.177 -3792.129)" xlink:href="#Безымянный_градиент_1374"/><linearGradient id="Безымянный_градиент_1374-13" x1="3437.38" y1="1302.93" x2="3444.24" y2="1304.32" gradientTransform="rotate(38.6 2484.177 -3792.129)" xlink:href="#Безымянный_градиент_1374"/><linearGradient id="Безымянный_градиент_1374-14" x1="3566.38" y1="1273.93" x2="3573.24" y2="1275.32" gradientTransform="rotate(38.6 2484.177 -3792.129)" xlink:href="#Безымянный_градиент_1374"/><linearGradient id="Безымянный_градиент_1376" x1="1694" y1="917.5" x2="1397.75" y2="746.46" gradientUnits="userSpaceOnUse"><stop offset=".3" stop-color="#f0a" stop-opacity="0"/><stop offset=".96" stop-color="#f0a" stop-opacity=".96"/><stop offset="1" stop-color="#f0a"/></linearGradient><linearGradient id="Безымянный_градиент_1376-2" x1="5232" y1="-8848.7" x2="4935.75" y2="-9019.74" gradientTransform="rotate(180 2742.875 -4381.12)" xlink:href="#Безымянный_градиент_1376"/></defs><path d="M702 610a11.5 11.5 0 0 1-5.74-1.54l-32-18.48a11.5 11.5 0 1 1 11.5-19.92l32 18.48A11.5 11.5 0 0 1 702 610z" fill="url(#Безымянный_градиент_1342)"/><path d="M471 635.65a11.4 11.4 0 0 1-5.74-1.54l-22-12.7a11.5 11.5 0 1 1 11.5-19.92l22 12.7a11.5 11.5 0 0 1-5.76 21.46z" fill="url(#Безымянный_градиент_1342-2)"/><path d="M940 588.43a11.5 11.5 0 0 1-5.74-1.54l-1160-669.73A11.51 11.51 0 0 1-230-98.55a11.51 11.51 0 0 1 15.71-4.21L945.75 567a11.5 11.5 0 0 1-5.75 21.43z" fill="url(#Безымянный_градиент_1342-3)"/><path d="M552 269.5a11.41 11.41 0 0 1-5.74-1.55l-50-28.86a11.5 11.5 0 0 1 11.5-19.92l50 28.87A11.5 11.5 0 0 1 552 269.5z" fill="url(#Безымянный_градиент_1342-4)"/><path d="M718 513.26a11.5 11.5 0 0 1-5.74-1.54l-938-541.56A11.51 11.51 0 0 1-230-45.55a11.51 11.51 0 0 1 15.71-4.21l938 541.56a11.5 11.5 0 0 1-5.71 21.46z" fill="url(#Безымянный_градиент_1342-5)"/><path d="M1062 764.87a11.41 11.41 0 0 1-5.74-1.55l-1282-740.16A11.51 11.51 0 0 1-230 7.45a11.51 11.51 0 0 1 15.71-4.21l1282 740.17a11.5 11.5 0 0 1-5.76 21.46z" fill="url(#Безымянный_градиент_1342-6)"/><path d="M460 470.3a11.5 11.5 0 0 1-5.74-1.54l-680-392.6A11.51 11.51 0 0 1-230 60.45a11.51 11.51 0 0 1 15.71-4.21l680 392.6A11.5 11.5 0 0 1 460 470.3z" fill="url(#Безымянный_градиент_1342-7)"/><path d="M917 787.15a11.5 11.5 0 0 1-5.74-1.54l-1137-656.45a11.51 11.51 0 0 1-4.26-15.71 11.51 11.51 0 0 1 15.71-4.21l1137 656.45a11.5 11.5 0 0 1-5.71 21.46z" fill="url(#Безымянный_градиент_1342-8)"/><path d="M634 676.76a11.5 11.5 0 0 1-5.74-1.54l-854-493.06a11.51 11.51 0 0 1-4.26-15.71 11.51 11.51 0 0 1 15.71-4.21l854 493.06a11.5 11.5 0 0 1-5.71 21.46z" fill="url(#Безымянный_градиент_1342-9)"/><path d="M350 565.79a11.4 11.4 0 0 1-5.74-1.54l-570-329.09a11.51 11.51 0 0 1-4.26-15.71 11.51 11.51 0 0 1 15.71-4.21l570 329.09a11.5 11.5 0 0 1-5.71 21.46z" fill="url(#Безымянный_градиент_1342-10)"/><path d="M812 885.53a11.5 11.5 0 0 1-5.74-1.54l-1032-595.83a11.51 11.51 0 0 1-4.26-15.71 11.51 11.51 0 0 1 15.71-4.21l1032 595.83a11.5 11.5 0 0 1-5.71 21.46z" fill="url(#Безымянный_градиент_1342-11)"/><path d="M502 759.55a11.5 11.5 0 0 1-5.74-1.54l-722-416.85a11.51 11.51 0 0 1-4.26-15.71 11.51 11.51 0 0 1 15.71-4.21l722 416.85a11.5 11.5 0 0 1-5.71 21.46z" fill="url(#Безымянный_градиент_1342-12)"/><path d="M457 851.55a11.41 11.41 0 0 1-5.74-1.55l-72-41.57a11.5 11.5 0 1 1 11.5-19.92l72 41.57a11.51 11.51 0 0 1-5.76 21.47z" fill="url(#Безымянный_градиент_1342-13)"/><path d="M2184 1068.76a11.4 11.4 0 0 1-5.74-1.54l-1160-669.72a11.5 11.5 0 0 1 11.5-19.92l1160 669.72a11.5 11.5 0 0 1-5.76 21.46z" fill="url(#Безымянный_градиент_1342-14)"/><path d="M1439 780.84a11.5 11.5 0 0 1-5.74-1.54l-50-28.87a11.5 11.5 0 0 1 11.5-19.92l50 28.87a11.5 11.5 0 0 1-5.76 21.46z" fill="url(#Безымянный_градиент_1342-15)"/><path d="M2184 1015.76a11.4 11.4 0 0 1-5.74-1.54l-938-541.55a11.5 11.5 0 0 1 11.5-19.92l938 541.55a11.5 11.5 0 0 1-5.76 21.46z" fill="url(#Безымянный_градиент_1342-16)"/><path d="M2184 962.76a11.4 11.4 0 0 1-5.74-1.54l-1282-740.16a11.5 11.5 0 1 1 11.5-19.92l1282 740.16a11.5 11.5 0 0 1-5.76 21.46z" fill="url(#Безымянный_градиент_1342-17)"/><path d="M2184 909.76a11.4 11.4 0 0 1-5.74-1.54l-680-392.6a11.5 11.5 0 1 1 11.5-19.91l680 392.59a11.5 11.5 0 0 1-5.76 21.46z" fill="url(#Безымянный_градиент_1342-18)"/><path d="M1421 470.92a11.4 11.4 0 0 1-5.74-1.54l-32-18.47a11.5 11.5 0 0 1 11.5-19.92l32 18.47a11.5 11.5 0 0 1-5.76 21.46z" fill="url(#Безымянный_градиент_1342-19)"/><path d="M2184 856.76a11.4 11.4 0 0 1-5.74-1.54l-1137-656.45a11.5 11.5 0 1 1 11.5-19.91l1137 656.44a11.5 11.5 0 0 1-5.76 21.46z" fill="url(#Безымянный_градиент_1342-20)"/><path d="M2184 803.76a11.4 11.4 0 0 1-5.74-1.54l-854-493a11.5 11.5 0 0 1 11.5-19.92l854 493.05a11.5 11.5 0 0 1-5.76 21.46z" fill="url(#Безымянный_градиент_1342-21)"/><path d="M2184 750.76a11.4 11.4 0 0 1-5.74-1.54l-570-329.09a11.5 11.5 0 0 1 11.5-19.92l570 329.09a11.5 11.5 0 0 1-5.76 21.46z" fill="url(#Безымянный_градиент_1342-22)"/><path d="M2184 697.76a11.4 11.4 0 0 1-5.74-1.54l-1032-595.82a11.5 11.5 0 0 1 11.5-19.92l1032 595.82a11.5 11.5 0 0 1-5.76 21.46z" fill="url(#Безымянный_градиент_1342-23)"/><path d="M2184 644.76a11.4 11.4 0 0 1-5.74-1.54l-722-416.84a11.5 11.5 0 0 1 11.5-19.92l722 416.84a11.5 11.5 0 0 1-5.76 21.46z" fill="url(#Безымянный_градиент_1342-24)"/><g class="cls-1"><circle cx="1821.5" cy="68.6" r="7.5" fill="url(#Безымянный_градиент_1374)"/><circle cx="1861.5" cy="202.6" r="7.5" fill="url(#Безымянный_градиент_1374-2)"/><circle cx="1629.5" cy="191.6" r="15.5" fill="url(#Безымянный_градиент_1374-3)"/><circle cx="1777.5" cy="126.6" r="3.5" fill="url(#Безымянный_градиент_1374-4)"/><circle cx="1610.5" cy="105.6" r="3.5" fill="url(#Безымянный_градиент_1374-5)"/><circle cx="1694.5" cy="277.6" r="3.5" fill="url(#Безымянный_градиент_1374-6)"/><circle cx="1823.5" cy="248.6" r="3.5" fill="url(#Безымянный_градиент_1374-7)"/></g><g class="cls-1"><circle cx="83.5" cy="710.6" r="7.5" fill="url(#Безымянный_градиент_1374-8)"/><circle cx="229.86" cy="832.77" r="7.5" fill="url(#Безымянный_градиент_1374-9)"/><circle cx="298.51" cy="734.55" r="15.5" fill="url(#Безымянный_градиент_1374-10)"/><circle cx="211.63" cy="720.97" r="3.5" fill="url(#Безымянный_градиент_1374-11)"/><circle cx="94.23" cy="600.36" r="3.5" fill="url(#Безымянный_градиент_1374-12)"/><circle cx="52.56" cy="787.19" r="3.5" fill="url(#Безымянный_градиент_1374-13)"/><circle cx="171.47" cy="845.01" r="3.5" fill="url(#Безымянный_градиент_1374-14)"/></g><path fill="url(#Безымянный_градиент_1376)" d="M1397.75 746.46L1694 917.5"/><path fill="url(#Безымянный_градиент_1376-2)" d="M550 257.5L253.75 86.46"/></svg>